<svg fill="#000000" xmlns="http://www.w3.org/2000/svg" viewBox="0 0 64 64" width="64px" height="64px"><path d="M 32 3.0722656 C 31.31806 3.0722629 30.635544 3.2399841 30.019531 3.5761719 C 25.429648 6.0801083 11.611897 13.617822 7.0214844 16.123047 C 5.7899466 16.794975 5 18.066582 5 19.455078 L 5 44.546875 C 5 45.936315 5.7905401 47.207723 7.0214844 47.878906 L 7.0214844 47.876953 C 11.613467 50.381944 25.428379 57.919745 30.019531 60.423828 C 31.250985 61.096616 32.74649 61.096204 33.978516 60.423828 C 38.570364 57.919911 52.384018 50.384749 56.976562 47.878906 L 56.978516 47.876953 C 58.210007 47.205119 59 45.933418 59 44.544922 L 59 19.453125 C 59 18.06463 58.210278 16.793773 56.978516 16.123047 L 56.976562 16.121094 C 52.382441 13.615503 38.569257 6.0800307 33.978516 3.5761719 C 33.362789 3.239778 32.68194 3.0722684 32 3.0722656 z M 32 5.0761719 C 32.35431 5.0761691 32.709211 5.161425 33.021484 5.3320312 C 37.612279 7.8359191 51.426299 15.371826 56.019531 17.876953 L 56.021484 17.878906 C 56.646235 18.218496 57 18.816565 57 19.453125 L 57 44.544922 C 57 45.181482 56.646507 45.780662 56.021484 46.121094 L 56.019531 46.121094 L 56.019531 46.123047 C 51.428675 48.627969 37.613171 56.16414 33.021484 58.667969 C 32.39551 59.009593 31.603062 59.009181 30.978516 58.667969 C 26.387715 56.164005 12.570533 48.628056 7.9785156 46.123047 L 7.9785156 46.121094 C 7.3534599 45.780324 7 45.183435 7 44.546875 L 7 19.455078 C 7 18.818518 7.353493 18.219338 7.9785156 17.878906 L 7.9804688 17.878906 L 7.9804688 17.876953 C 12.57006 15.372225 26.388399 7.8360948 30.978516 5.3320312 C 31.291503 5.161219 31.64569 5.0761746 32 5.0761719 z M 32 11.994141 C 20.884798 11.994141 11.841797 21.037142 11.841797 32.152344 C 11.841797 43.267545 20.884798 52.310547 32 52.310547 C 39.495685 52.310547 46.040162 48.194332 49.509766 42.109375 A 1.0001 1.0001 0 0 0 49.123047 40.738281 L 33.488281 32.134766 L 48.972656 23.287109 A 1.0001 1.0001 0 0 0 49.337891 21.908203 C 48.36924 20.273802 47.177276 18.787095 45.804688 17.490234 A 1.0001 1.0001 0 1 0 44.431641 18.943359 C 45.419335 19.876561 46.213884 20.992458 46.974609 22.125 L 30.947266 31.283203 A 1.0001 1.0001 0 0 0 30.960938 33.027344 L 47.154297 41.9375 C 43.919551 46.933017 38.395455 50.310547 32 50.310547 C 21.967202 50.310547 13.841797 42.185142 13.841797 32.152344 C 13.841797 22.119545 21.967202 13.994141 32 13.994141 C 32.971266 13.994141 33.922559 14.069861 34.851562 14.216797 A 1.0001 1.0001 0 1 0 35.164062 12.242188 C 34.133066 12.079121 33.076734 11.994141 32 11.994141 z M 38.701172 13.214844 A 1.0001 1.0001 0 0 0 38.384766 15.154297 C 39.528363 15.587291 40.615459 16.131532 41.636719 16.775391 A 1.000281 1.000281 0 0 0 42.705078 15.083984 C 41.572338 14.369843 40.364153 13.764209 39.09375 13.283203 A 1.0001 1.0001 0 0 0 38.701172 13.214844 z M 18.945312 33.789062 A 1.0001 1.0001 0 0 0 18.677734 33.822266 L 16.736328 34.304688 A 1.0002235 1.0002235 0 0 0 17.21875 36.246094 L 19.160156 35.763672 A 1.0001 1.0001 0 0 0 18.945312 33.789062 z M 20.839844 38.183594 A 1.0001 1.0001 0 0 0 20.302734 38.347656 L 18.617188 39.423828 A 1.0001 1.0001 0 1 0 19.693359 41.109375 L 21.378906 40.033203 A 1.0001 1.0001 0 0 0 20.839844 38.183594 z M 24 41.753906 A 1.0001 1.0001 0 0 0 23.251953 42.142578 L 22.007812 43.707031 A 1.0001 1.0001 0 1 0 23.572266 44.951172 L 24.816406 43.386719 A 1.0001 1.0001 0 0 0 24 41.753906 z M 28.201172 43.949219 A 1.0001 1.0001 0 0 0 27.263672 44.677734 L 26.695312 46.59375 A 1.0004825 1.0004825 0 1 0 28.613281 47.164062 L 29.181641 45.246094 A 1.0001 1.0001 0 0 0 28.201172 43.949219 z"/></svg>