<svg id="Layer_3" enable-background="new 0 0 64 64" height="512" viewBox="0 0 64 64" width="512" xmlns="http://www.w3.org/2000/svg"><g><path d="m7 51h34v2h-34z"/><path d="m7 47h34v2h-34z"/><path d="m7 43h26v2h-26z"/><path d="m7 39h26v2h-26z"/><path d="m23 21h8c.553 0 1-.448 1-1v-4c0-1.723-.876-3.245-2.207-4.145.743-.727 1.207-1.736 1.207-2.855 0-2.206-1.794-4-4-4s-4 1.794-4 4c0 1.119.464 2.128 1.207 2.855-1.331.9-2.207 2.422-2.207 4.145v4c0 .552.447 1 1 1zm2-12c0-1.103.897-2 2-2s2 .897 2 2-.897 2-2 2-2-.897-2-2zm-1 7c0-1.654 1.346-3 3-3s3 1.346 3 3v3h-6z"/><path d="m18 23h18v2h-18z"/><path d="m18 27h18v2h-18z"/><path d="m58 22c0-3.86-3.141-7-7-7s-7 3.14-7 7 3.141 7 7 7 7-3.14 7-7zm-7 5c-2.757 0-5-2.243-5-5s2.243-5 5-5 5 2.243 5 5-2.243 5-5 5z"/><path d="m57.092 31.872c2.232-.501 3.908-2.491 3.908-4.872 0-.313-.032-.628-.096-.944 1.31-.929 2.096-2.418 2.096-4.056s-.786-3.127-2.096-4.056c.064-.316.096-.631.096-.944 0-2.757-2.243-5-5-5-.313 0-.629.032-.943.096-.929-1.31-2.419-2.096-4.057-2.096v-4c0-.552-.447-1-1-1h-3v-3c0-.552-.447-1-1-1h-34c-.266 0-.52.105-.707.293l-10 10c-.188.187-.293.442-.293.707v46c0 .553.447 1 1 1h3v3c0 .553.447 1 1 1h44c.553 0 1-.447 1-1v-28c.101 0 .2-.012.3-.018l2.764 7.37c.132.351.449.599.822.642.038.004.076.006.114.006.332 0 .646-.165.832-.445l1.629-2.442 4.343.868c.422.088.848-.109 1.062-.479.215-.371.17-.837-.112-1.159zm-8.092-24.872v3.425c-.788.346-1.478.891-2 1.6v-5.025zm-38-2.586v6.586h-6.586zm-8 8.586h9c.553 0 1-.448 1-1v-9h32v9.101c-2.279.465-4 2.484-4 4.899 0 .313.032.628.096.944-1.31.929-2.096 2.418-2.096 4.056s.786 3.127 2.096 4.056c-.064.316-.096.631-.096.944 0 2.381 1.676 4.371 3.908 4.872l-5.661 6.47c-.282.322-.327.788-.112 1.159.214.369.641.569 1.062.479l4.343-.868.46.691v17.197h-42zm43.749 25.821-.917-1.376c-.225-.337-.628-.51-1.028-.426l-2.111.422 4.536-5.183c.43.504.947.914 1.529 1.208zm-39.749 22.179v-2h39c.553 0 1-.447 1-1v-16c.038 0 .076-.002.114-.007.373-.043.69-.291.822-.642l1.064-2.835v22.484zm41.31-30.704c-.171-.354-.527-.565-.9-.565-.118 0-.238.021-.354.065-2.077.789-4.056-.799-4.056-2.796 0-.347.066-.692.204-1.056.183-.484-.034-1.028-.5-1.253-1.051-.509-1.704-1.54-1.704-2.691s.653-2.182 1.704-2.69c.466-.226.683-.769.5-1.253-.138-.365-.204-.71-.204-1.057 0-1.997 1.979-3.584 4.055-2.796.483.184 1.03-.033 1.255-.5.507-1.051 1.538-1.704 2.69-1.704s2.183.653 2.69 1.704c.225.466.772.683 1.255.5 2.076-.788 4.055.799 4.055 2.796 0 .347-.066.692-.204 1.056-.183.484.034 1.028.5 1.253 1.051.509 1.704 1.54 1.704 2.691s-.653 2.182-1.704 2.69c-.466.226-.683.769-.5 1.253.138.365.204.71.204 1.057 0 1.997-1.979 3.584-4.055 2.796-.481-.182-1.029.033-1.255.5-.507 1.051-1.539 1.704-2.69 1.704s-2.183-.653-2.69-1.704zm8.886 6.724c-.395-.082-.804.089-1.028.426l-.917 1.376-2.008-5.355c.582-.294 1.099-.704 1.529-1.208l4.536 5.183z"/><path d="m53.219 18.375-3.302 4.127-1.21-1.21-1.414 1.414 2 2c.187.189.442.294.707.294.019 0 .037 0 .056-.001.283-.016.548-.152.726-.374l4-5z"/><path d="m8 37h10c.553 0 1-.447 1-1v-4c0-.552-.447-1-1-1h-10c-.553 0-1 .448-1 1v4c0 .553.447 1 1 1zm1-4h8v2h-8z"/></g></svg>